<?xml version="1.0" encoding="UTF-8" standalone="no"?>
<!DOCTYPE svg PUBLIC "-//W3C//DTD SVG 1.1//EN" "http://www.w3.org/Graphics/SVG/1.1/DTD/svg11.dtd">
<svg width="100%" height="100%" viewBox="0 0 83 83" version="1.1" xmlns="http://www.w3.org/2000/svg" xmlns:xlink="http://www.w3.org/1999/xlink" xml:space="preserve" style="fill-rule:evenodd;clip-rule:evenodd;stroke-linejoin:round;stroke-miterlimit:1.41421;">
    <g transform="matrix(1,0,0,1,-3572.27,-1063.27)">
        <g transform="matrix(1,0,0,1.9025,3064,913)">
            <g transform="matrix(1,-3.34392e-18,-6.3618e-18,0.539277,-3067,-497.671)">
                <ellipse cx="3616.5" cy="1109.5" rx="39.5" ry="38.5" style="fill:none;stroke-width:1.97px;stroke:rgb(119,120,131);"/>
            </g>
        </g>
        <g transform="matrix(1,0,0,1.9025,3064,913)">
            <g transform="matrix(1,0,0,0.525624,-3064,-479.895)">
                <path d="M3639,1134C3622.57,1095.45 3605.91,1095.38 3589,1135" style="fill:none;stroke-width:2px;stroke:rgb(119,120,131);"/>
            </g>
        </g>
        <g transform="matrix(1,0,0,1.9025,3064,913)">
            <g transform="matrix(1,0,0,0.525624,-3063.75,-479.895)">
                <circle cx="3613.25" cy="1094.25" r="10.25" style="fill:none;stroke-width:2px;stroke:rgb(119,120,131);"/>
            </g>
        </g>
    </g>
</svg>
