<?xml version="1.0" encoding="UTF-8" standalone="no"?>
<!DOCTYPE svg PUBLIC "-//W3C//DTD SVG 1.1//EN" "http://www.w3.org/Graphics/SVG/1.1/DTD/svg11.dtd">
<svg width="100%" height="100%" viewBox="0 0 419 309" version="1.1" xmlns="http://www.w3.org/2000/svg" xmlns:xlink="http://www.w3.org/1999/xlink" xml:space="preserve" style="fill-rule:evenodd;clip-rule:evenodd;stroke-linejoin:round;stroke-miterlimit:1.41421;">
    <g transform="matrix(1,0,0,1,-6988.61,-548.376)">
        <g transform="matrix(1.09317,0,0,1.18742,1831.65,-766.39)">
            <g transform="matrix(1.62538,0,0,1.62538,-3197.66,-756.433)">
                <g>
                    <g>
                        <g transform="matrix(1.09693,0,0,1.00986,4255.73,34.002)">
                            <path d="M627,1157C640.373,1141.41 646.843,1103.88 628.647,1103.05C609.302,1102.17 613.744,1139.3 627,1157Z" style="fill:rgb(80,173,101);stroke:rgb(80,173,101);stroke-width:2.57px;"/>
                        </g>
                        <g>
                            <g transform="matrix(0.775916,0.422002,-0.458388,0.714326,4992.53,150.824)">
                                <path d="M627,1157C640.373,1141.41 646.843,1103.88 628.647,1103.05C609.302,1102.17 613.744,1139.3 627,1157Z" style="fill:rgb(80,173,101);stroke:rgb(80,173,101);stroke-width:3.12px;"/>
                            </g>
                            <g transform="matrix(1.09693,0,0,1.00986,4255.73,34.002)">
                                <path d="M632.71,1194.1L627.438,1203" style="fill:none;stroke:rgb(80,173,101);stroke-width:2.57px;"/>
                            </g>
                        </g>
                        <g>
                            <g transform="matrix(-0.775916,0.422002,0.458388,0.714326,4892.84,139.709)">
                                <path d="M627,1157C640.373,1141.41 646.843,1103.88 628.647,1103.05C609.302,1102.17 613.744,1139.3 627,1157Z" style="fill:rgb(80,173,101);stroke:rgb(80,173,101);stroke-width:3.12px;"/>
                            </g>
                            <g transform="matrix(1.09693,0,0,1.00986,4255.73,34.002)">
                                <path d="M627.438,1193.5L620,1184.1" style="fill:none;stroke:rgb(80,173,101);stroke-width:2.57px;"/>
                            </g>
                        </g>
                        <g transform="matrix(1.09693,0,0,1.00986,4255.73,32.5163)">
                            <path d="M627.714,1215.97L627,1156.36" style="fill:none;stroke:rgb(80,173,101);stroke-width:2.57px;"/>
                        </g>
                    </g>
                    <g transform="matrix(1.31239,0,0,1.20822,4134.54,-219.598)">
                        <path d="M589,1225L645,1225C645,1225 644.97,1226.49 644.913,1227.23C643.776,1241.64 631.704,1253 617,1253C601.933,1253 589.63,1241.07 589.023,1226.15C589.008,1225.77 589,1225 589,1225Z" style="fill:none;stroke:rgb(80,173,101);stroke-width:2.14px;"/>
                    </g>
                    <g transform="matrix(1.09693,0,0,1.00986,4255.73,34.002)">
                        <path d="M588,1214.5L561,1214.5C561,1214.5 577.88,1245.65 588,1251C598.12,1256.35 609.857,1261.61 624.583,1257.48C635.489,1254.43 643.442,1250.07 643,1249C641.942,1246.44 637.067,1249.45 627.357,1250C616.6,1250.61 601.319,1243.48 605,1237C607.199,1233.13 621.92,1234.6 621,1229C620.609,1226.62 610.752,1231.35 606.847,1230.73C604.097,1230.29 595.31,1228.19 592,1229C589.385,1229.64 587.361,1219.92 588,1214.5Z" style="fill:rgb(80,173,101);stroke:rgb(80,173,101);stroke-width:2.57px;"/>
                    </g>
                </g>
                <g transform="matrix(-1,0,0,1,9974.71,0)">
                    <g transform="matrix(1.31239,0,0,1.20822,4134.54,-219.598)">
                        <path d="M589,1225L645,1225C645,1225 644.97,1226.49 644.913,1227.23C643.776,1241.64 631.704,1253 617,1253C601.933,1253 589.63,1241.07 589.023,1226.15C589.008,1225.77 589,1225 589,1225Z" style="fill:none;stroke:rgb(113,113,113);stroke-width:2.14px;"/>
                    </g>
                    <g transform="matrix(1.09693,0,0,1.00986,4255.73,34.002)">
                        <path d="M588,1214.5L561,1214.5C561,1214.5 577.88,1245.65 588,1251C598.12,1256.35 609.857,1261.61 624.583,1257.48C635.489,1254.43 643.442,1250.07 643,1249C641.942,1246.44 637.067,1249.45 627.357,1250C616.6,1250.61 601.319,1243.48 605,1237C607.199,1233.13 621.92,1234.6 621,1229C620.609,1226.62 610.752,1231.35 606.847,1230.73C604.097,1230.29 595.31,1228.19 592,1229C589.385,1229.64 587.361,1219.92 588,1214.5Z" style="fill:rgb(113,113,113);stroke:rgb(113,113,113);stroke-width:2.57px;"/>
                    </g>
                </g>
                <g transform="matrix(0.615242,0,0,0.615242,1953.73,130.305)">
                    <g transform="matrix(1.09693,0,0,1.00986,4255.73,34.002)">
                        <path d="M615.401,1699C684.68,1698.86 688.398,1703.77 686.057,1763.58" style="fill:none;stroke:rgb(80,173,101);stroke-width:4.17px;stroke-linecap:round;"/>
                    </g>
                    <g transform="matrix(1.09693,0,0,1.00986,4255.73,34.002)">
                        <path d="M686.151,1764.37L666,1746" style="fill:none;stroke:rgb(80,173,101);stroke-width:4.17px;stroke-linecap:round;"/>
                    </g>
                    <g transform="matrix(-1.09693,0,0,1.00986,5760.94,34.002)">
                        <path d="M686.151,1764.37L666,1746" style="fill:none;stroke:rgb(80,173,101);stroke-width:4.17px;stroke-linecap:round;"/>
                    </g>
                </g>
            </g>
        </g>
    </g>
</svg>
