<?xml version="1.0" encoding="UTF-8" standalone="no"?>
<!DOCTYPE svg PUBLIC "-//W3C//DTD SVG 1.1//EN" "http://www.w3.org/Graphics/SVG/1.1/DTD/svg11.dtd">
<svg width="100%" height="100%" viewBox="0 0 39 39" version="1.1" xmlns="http://www.w3.org/2000/svg" xmlns:xlink="http://www.w3.org/1999/xlink" xml:space="preserve" style="fill-rule:evenodd;clip-rule:evenodd;stroke-linejoin:round;stroke-miterlimit:1.41421;">
    <g transform="matrix(1,0,0,1,-3445.13,-1317.13)">
        <g transform="matrix(1,0,0,1.9025,3064,913)">
            <g transform="matrix(0.52,0,0,0.273325,-1254.25,-149.696)">
                <g transform="matrix(1.92308,0,0,1.92308,-2905.29,-1186.93)">
                    <circle cx="3165.5" cy="1325.5" r="16.5" style="fill:none;stroke-width:1px;stroke:white;"/>
                </g>
                <g transform="matrix(2.15618,0,0,2.15618,-3643.17,-1495.9)">
                    <circle cx="3165.5" cy="1325.5" r="16.5" style="fill:none;stroke-width:0.89px;stroke:white;"/>
                </g>
                <g transform="matrix(0.000182761,-0.271666,0.271666,0.000182761,3100.68,1477.66)">
                    <g id="Layer1">
                        <path d="M483.752,355.818L476.343,368.492C476.343,368.492 473.086,368.714 470.422,365.31C468.807,363.245 465.454,357.144 465.454,357.144C465.454,357.144 453.778,370.838 442.96,370.936C431.319,371.043 426.544,360.459 426.544,360.459C426.544,360.459 410.714,374.678 400.689,371.427C388.763,367.559 385.31,359.541 383.229,350.768C378.822,332.189 376.574,277.495 374.248,259.953C373.963,257.805 372.875,251.42 371.449,248.634C369.525,244.875 367.179,244.925 367.179,244.925L372.12,229.801C372.12,229.801 375.063,228.547 379.608,233.354C382.013,235.898 386.623,242.403 386.623,242.403C386.623,242.403 394.246,228.352 407.596,228.208C420.314,228.071 424.968,239.97 424.968,239.97C424.968,239.97 435.511,224.927 450.705,228.243C450.705,228.243 450.705,228.243 450.705,228.243C460.78,230.442 465.667,239.304 467.797,247.66C472.132,264.659 475.876,311.097 476.711,330.239C477.715,353.263 482.864,355.724 483.752,355.818ZM483.752,355.818L483.792,355.75C483.931,355.782 483.904,355.835 483.752,355.818ZM446.186,245.712C440.963,244.61 430.474,256.415 430.474,256.415C430.474,256.415 434.561,283.782 435.568,300C436.577,316.249 438.462,351.795 443.627,353.839C448.788,355.881 460.362,341.246 460.362,341.246C460.362,341.246 456.316,319.197 454.282,295.161C452.925,279.121 451.674,246.871 446.186,245.712ZM407.186,245.712C401.963,244.61 391.474,256.415 391.474,256.415C391.474,256.415 395.561,283.782 396.568,300C397.577,316.249 399.462,351.795 404.627,353.839C409.788,355.881 421.362,341.246 421.362,341.246C421.362,341.246 417.316,319.197 415.282,295.161C413.925,279.121 412.674,246.871 407.186,245.712Z" style="fill:none;stroke-width:6.02px;stroke-linecap:round;stroke:white;"/>
                    </g>
                </g>
            </g>
        </g>
    </g>
</svg>
